# xmcd CD database file
#
# Track frame offsets:
#	150
#	18427
#	43128
#	59173
#	85609
#	99881
#	121648
#	142076
#	160632
#	180693
#	200826
#	212147
#
# Disc length: 3126 seconds
#
# Revision: 2
# Processed by: cddbd v1.4PL0 Copyright (c) Steve Scherf et al.
# Submitted via: CDex 1.51
#
DISCID=a50c340c
DTITLE=Heikki Silvennoinen - Sweet Surrender
DYEAR=1999
DGENRE=Blues
TTITLE0=Magic Carpet Ride
TTITLE1=Sweet Surrender
TTITLE2=Born Under a Bad Sign
TTITLE3=Way Too Long
TTITLE4=Politician
TTITLE5=Down Hearted Man
TTITLE6=To Me
TTITLE7=Gimme Something Else
TTITLE8=The River
TTITLE9=In No Time At All
TTITLE10=All Dressed Up
TTITLE11=Flesh And Bone
EXTD=YEAR: 1999
EXTT0=
EXTT1=
EXTT2=
EXTT3=
EXTT4=
EXTT5=
EXTT6=
EXTT7=
EXTT8=
EXTT9=
EXTT10=
EXTT11=
PLAYORDER=
